# xmcd
#
# Track frame offsets:
#	150
#	10913
#	21263
#	33563
#	43951
#	54601
#	71664
#	81189
#	91389
#	101439
#	110514
#	119964
#	130539
#	142914
#	154764
#	167627
#	180377
#	189077
#	197890
#	208653
#	220953
#
# Disc length: 3086 seconds
#
# Revision: 0
# Processed by: cddbd v1.5.2PL0 Copyright (c) Steve Scherf et al.
# Submitted via: EasyCDDAExtractor 10.0.6.1
#
DISCID=2b0c0c15
DTITLE=파이디온 어린이 CCM - 믿음의 빛 (2008)
DYEAR=2008
DGENRE=Gospel
TTITLE0=내가 만난 하나님의 책
TTITLE1=따라가리라
TTITLE2=끊어요
TTITLE3=그분을 향해
TTITLE4=승리는 주께 있네
TTITLE5=내 삶 채우시네
TTITLE6=여호와의 말씀 따라
TTITLE7=다윗처럼
TTITLE8=하나님께로
TTITLE9=죽으면 죽으리라
TTITLE10=시편
TTITLE11=주님의 자녀
TTITLE12=감람나무
TTITLE13=길
TTITLE14=나를 향한 그 사랑
TTITLE15=그 은혜
TTITLE16=달려가요
TTITLE17=주의 사랑 전하리라
TTITLE18=내가 만난 하나님의 책 (MR)
TTITLE19=끊어요 (MR)
TTITLE20=승리는 주께 있네 (MR)
EXTD=
EXTT0=
EXTT1=
EXTT2=
EXTT3=
EXTT4=
EXTT5=
EXTT6=
EXTT7=
EXTT8=
EXTT9=
EXTT10=
EXTT11=
EXTT12=
EXTT13=
EXTT14=
EXTT15=
EXTT16=
EXTT17=
EXTT18=
EXTT19=
EXTT20=
PLAYORDER=
